<svg width="50" height="60" viewBox="0 0 50 60" fill="none" xmlns="http://www.w3.org/2000/svg">
<path fill-rule="evenodd" clip-rule="evenodd" d="M9.83359 15.0514V14.6809C9.83359 7.98101 14.3696 2.1311 20.8583 0.462552C23.2568 -0.154184 25.7722 -0.154184 28.1706 0.462552C34.6594 2.1311 39.1954 7.98102 39.1954 14.6809V15.0514H43.8349C45.6006 15.0514 47.0991 16.3463 47.3551 18.0934L48.0309 22.7061C49.3616 31.788 49.3616 41.0154 48.0309 50.0973C47.3883 54.4832 43.8516 57.8739 39.4426 58.3311L37.499 58.5327C28.8658 59.4279 20.1632 59.4279 11.53 58.5326L9.58633 58.3311C5.1773 57.8739 1.64063 54.4832 0.998015 50.0974C-0.332672 41.0154 -0.332671 31.788 0.998015 22.7061L1.67387 18.0934C1.92985 16.3463 3.42837 15.0514 5.19403 15.0514H9.83359ZM22.0129 4.95256C23.6539 4.53058 25.375 4.53058 27.0161 4.95256C31.4558 6.09419 34.5593 10.0968 34.5593 14.6809V15.0514H14.4697V14.6809C14.4697 10.0968 17.5732 6.09419 22.0129 4.95256ZM9.83359 19.6875V26.6416C9.83359 27.9218 10.8714 28.9596 12.1516 28.9596C13.4318 28.9596 14.4697 27.9218 14.4697 26.6416V19.6875H34.5593V26.6416C34.5593 27.9218 35.5971 28.9596 36.8773 28.9596C38.1576 28.9596 39.1954 27.9218 39.1954 26.6416V19.6875H42.9031L43.4438 23.3782C44.7092 32.0145 44.7092 40.789 43.4438 49.4252C43.1087 51.7128 41.264 53.4813 38.9644 53.7197L37.0207 53.9213C28.7055 54.7836 20.3234 54.7836 12.0082 53.9213L10.0645 53.7197C7.76492 53.4813 5.92028 51.7128 5.58511 49.4252C4.31973 40.789 4.31973 32.0144 5.58511 23.3782L6.12588 19.6875H9.83359Z" fill="#112038"/>
</svg>
