<svg width="53" height="64" viewBox="0 0 53 64" fill="none" xmlns="http://www.w3.org/2000/svg">
<path fill-rule="evenodd" clip-rule="evenodd" d="M11.6084 27.0438C11.6084 18.9357 18.1812 12.3629 26.2893 12.3629C34.3973 12.3629 40.9702 18.9357 40.9702 27.0438C40.9702 35.1518 34.3973 41.7247 26.2893 41.7247C18.1812 41.7247 11.6084 35.1518 11.6084 27.0438ZM26.2893 16.9989C20.7417 16.9989 16.2444 21.4962 16.2444 27.0438C16.2444 32.5914 20.7417 37.0886 26.2893 37.0886C31.8369 37.0886 36.3341 32.5914 36.3341 27.0438C36.3341 21.4962 31.8369 16.9989 26.2893 16.9989Z" fill="#C8C7CA"/>
<path fill-rule="evenodd" clip-rule="evenodd" d="M0.093487 23.5106C1.18861 10.2248 12.2909 0 25.6218 0H26.9568C40.2876 0 51.3899 10.2248 52.485 23.5106C53.0733 30.6475 50.8688 37.7342 46.3358 43.278L31.5218 61.3951C28.8174 64.7025 23.7611 64.7025 21.0568 61.3951L6.24277 43.278C1.70975 37.7342 -0.494797 30.6475 0.093487 23.5106ZM25.6218 4.63607C14.7037 4.63607 5.61081 13.0103 4.71389 23.8915C4.22428 29.8313 6.05906 35.7294 9.83178 40.3433L24.6458 58.4604C25.4952 59.4993 27.0833 59.4993 27.9328 58.4604L42.7468 40.3433C46.5195 35.7294 48.3543 29.8313 47.8646 23.8915C46.9677 13.0103 37.8748 4.63607 26.9568 4.63607H25.6218Z" fill="#C8C7CA"/>
</svg>
