<svg width="320" height="400" viewBox="0 0 320 400" fill="none" xmlns="http://www.w3.org/2000/svg">
<path d="M160 0C140.234 0 122.812 8.125 111.875 20.4688C80.625 22.8125 60 38.8281 60 62.0313C60 71.5625 64.6094 78.5938 70.7813 83.9063C97.1094 68.75 127.5 60 160 60C192.5 60 222.891 68.75 249.219 83.9063C255.391 78.5938 260 71.5625 260 62.0313C260 38.8281 239.375 22.8125 208.125 20.4688C197.188 8.125 179.766 0 160 0ZM160 80C71.6406 80 0 151.641 0 240C0 328.359 71.6406 400 160 400C248.359 400 320 328.359 320 240C320 151.641 248.359 80 160 80ZM102.656 134.375L133.125 165C141.562 161.953 150.547 160 160 160C169.531 160 178.516 161.797 186.953 164.766L217.422 134.375C223.359 137.812 228.984 141.563 234.219 145.781C262.031 167.578 280 201.797 280 240C280 267.969 270.391 293.828 254.219 314.219L240 300C252.578 283.438 260 262.578 260 240C260 207.422 244.219 178.203 220 160L205.625 174.375C213.438 179.844 220.156 186.562 225.625 194.375L211.094 208.906C206.094 200.781 199.141 193.984 191.016 188.984L160 220H180V240H160V260H180V280H160V300C181.719 300 200.547 288.359 211.094 271.094L225.625 285.625C211.172 306.328 187.188 320 160 320V340H140V317.188C105.547 308.281 80 277.266 80 240C80 212.812 93.6719 188.828 114.375 174.375L100 160C75.7813 178.203 60 207.422 60 240C60 262.578 67.4219 283.438 80 300L65.7813 314.219C49.6094 293.828 40 267.969 40 240C40 201.797 57.9688 167.578 85.7813 145.781C91.0156 141.563 96.6406 137.812 102.656 134.375ZM160 220L128.906 188.906C111.641 199.453 100 218.281 100 240C100 266.016 116.797 288.047 140 296.328V220H160ZM160 180C156.328 180 152.812 180.469 149.297 181.094L160 191.797L170.391 181.406C166.953 180.781 163.594 180 160 180Z" fill="#112038"/>
</svg>
