<svg width="59" height="55" viewBox="0 0 59 55" fill="none" xmlns="http://www.w3.org/2000/svg">
<path fill-rule="evenodd" clip-rule="evenodd" d="M24.3544 2.69417C26.4389 -0.898063 31.6264 -0.898053 33.7109 2.69418L40.0943 13.6951C40.6827 14.7092 41.6997 15.4011 42.8589 15.5762L53.4589 17.1772C58.0796 17.8751 59.7003 23.7091 56.1019 26.6904L48.3785 33.0891C47.2944 33.9872 46.7847 35.4039 47.048 36.7868L49.2115 48.1482C50.0589 52.5987 45.3869 56.0565 41.3783 53.9458L30.8326 48.3931C29.706 47.7999 28.3593 47.7999 27.2327 48.3931L16.6871 53.9458C12.6784 56.0565 8.00636 52.5987 8.85383 48.1482L11.0173 36.7868C11.2806 35.4039 10.7709 33.9872 9.68684 33.0891L1.96345 26.6903C-1.63502 23.7091 -0.0142388 17.8751 4.60637 17.1772L15.2064 15.5762C16.3656 15.4011 17.3826 14.7092 17.971 13.6951L24.3544 2.69417ZM29.701 5.02096C29.4032 4.50778 28.6621 4.50778 28.3643 5.02095L21.9809 16.0219C20.6865 18.2528 18.4491 19.7751 15.8988 20.1603L5.29874 21.7613C4.63864 21.861 4.40711 22.6944 4.92117 23.1203L12.6446 29.5191C15.0295 31.4949 16.1508 34.6116 15.5715 37.654L13.4081 49.0154C13.287 49.6512 13.9544 50.1452 14.5271 49.8436L25.0727 44.2909C27.5514 42.9858 30.5139 42.9858 32.9926 44.2909L43.5382 49.8436C44.1109 50.1452 44.7783 49.6512 44.6572 49.0154L42.4938 37.654C41.9145 34.6116 43.0358 31.4949 45.4207 29.5191L53.1441 23.1203C53.6582 22.6944 53.4267 21.861 52.7666 21.7613L42.1665 20.1603C39.6162 19.7751 37.3788 18.2528 36.0844 16.0219L29.701 5.02096Z" fill="#C8C7CA"/>
</svg>
