<svg width="32" height="32" viewBox="0 0 32 32" fill="none" xmlns="http://www.w3.org/2000/svg">
<path d="M15 14.5H17C17 15.05 16.55 15.5 16 15.5C15.45 15.5 15 15.05 15 14.5Z" fill="#112038"/>
<path d="M20.5 12.979C20.77 12.979 21 13.208 21 13.479C21 13.75 20.77 13.979 20.5 13.979C20.23 13.979 20 13.75 20 13.479C20 13.208 20.23 12.979 20.5 12.979Z" fill="#112038"/>
<path d="M11.5 12.979C11.77 12.979 12 13.208 12 13.479C12 13.75 11.77 13.979 11.5 13.979C11.23 13.979 11 13.75 11 13.479C11 13.208 11.23 12.979 11.5 12.979Z" fill="#112038"/>
<path d="M14.5 3.5H17.5" stroke="#112038" stroke-miterlimit="10" stroke-linecap="round" stroke-linejoin="round"/>
<path d="M24.5 27.5C24.5 29.15 23.15 30.5 21.5 30.5H10.5C8.85 30.5 7.5 29.15 7.5 27.5V4.5C7.5 2.85 8.85 1.5 10.5 1.5H21.5C23.15 1.5 24.5 2.85 24.5 4.5V27.5Z" stroke="#112038" stroke-miterlimit="10" stroke-linecap="round" stroke-linejoin="round"/>
<path d="M15 14.5H17C17 15.05 16.55 15.5 16 15.5C15.45 15.5 15 15.05 15 14.5Z" stroke="#112038" stroke-miterlimit="10" stroke-linecap="round" stroke-linejoin="round"/>
<path d="M20.5 12.979C20.77 12.979 21 13.208 21 13.479C21 13.75 20.77 13.979 20.5 13.979C20.23 13.979 20 13.75 20 13.479C20 13.208 20.23 12.979 20.5 12.979Z" stroke="#112038" stroke-miterlimit="10" stroke-linecap="round" stroke-linejoin="round"/>
<path d="M11.5 12.979C11.77 12.979 12 13.208 12 13.479C12 13.75 11.77 13.979 11.5 13.979C11.23 13.979 11 13.75 11 13.479C11 13.208 11.23 12.979 11.5 12.979Z" stroke="#112038" stroke-miterlimit="10" stroke-linecap="round" stroke-linejoin="round"/>
<path d="M14.5 3.5H17.5" stroke="#112038" stroke-miterlimit="10" stroke-linecap="round" stroke-linejoin="round"/>
<path d="M24.5 27.5C24.5 29.15 23.15 30.5 21.5 30.5H10.5C8.85 30.5 7.5 29.15 7.5 27.5V4.5C7.5 2.85 8.85 1.5 10.5 1.5H21.5C23.15 1.5 24.5 2.85 24.5 4.5V27.5Z" stroke="#112038" stroke-miterlimit="10" stroke-linecap="round" stroke-linejoin="round"/>
<path d="M15 14.5H17C17 15.05 16.55 15.5 16 15.5C15.45 15.5 15 15.05 15 14.5Z" stroke="#112038" stroke-miterlimit="10" stroke-linecap="round" stroke-linejoin="round"/>
<path d="M20.5 12.979C20.77 12.979 21 13.208 21 13.479C21 13.75 20.77 13.979 20.5 13.979C20.23 13.979 20 13.75 20 13.479C20 13.208 20.23 12.979 20.5 12.979Z" stroke="#112038" stroke-miterlimit="10" stroke-linecap="round" stroke-linejoin="round"/>
<path d="M11.5 12.979C11.77 12.979 12 13.208 12 13.479C12 13.75 11.77 13.979 11.5 13.979C11.23 13.979 11 13.75 11 13.479C11 13.208 11.23 12.979 11.5 12.979Z" stroke="#112038" stroke-miterlimit="10" stroke-linecap="round" stroke-linejoin="round"/>
</svg>
