<svg width="59" height="47" viewBox="0 0 59 47" fill="none" xmlns="http://www.w3.org/2000/svg">
<path d="M35.2786 14.0527C35.2786 11.4923 37.3542 9.41665 39.9146 9.41665C42.4751 9.41665 44.5507 11.4923 44.5507 14.0527C44.5507 16.6132 42.4751 18.6888 39.9146 18.6888C37.3542 18.6888 35.2786 16.6132 35.2786 14.0527Z" fill="#C8C7CA"/>
<path fill-rule="evenodd" clip-rule="evenodd" d="M14.4704 0.634541C24.2032 -0.211513 33.9911 -0.211514 43.7239 0.63454L48.3916 1.04029C52.8579 1.42854 56.4761 4.82723 57.1428 9.26052C58.5448 18.5843 58.5448 28.0654 57.1428 37.3892C56.4761 41.8225 52.8579 45.2212 48.3916 45.6094L43.7239 46.0152C33.9911 46.8612 24.2032 46.8612 14.4704 46.0152L9.80272 45.6094C5.33643 45.2212 1.71822 41.8225 1.05156 37.3892C-0.350519 28.0654 -0.350519 18.5843 1.05156 9.26052C1.71822 4.82723 5.33642 1.42854 9.80272 1.0403L14.4704 0.634541ZM43.3224 5.2532C33.8567 4.43036 24.3376 4.43037 14.8719 5.2532L10.2042 5.65895C7.87279 5.86162 5.98408 7.63574 5.63608 9.94993C4.84011 15.2431 4.51931 20.5896 4.67369 25.9258L16.6405 13.959C17.0919 13.5076 17.7096 13.2623 18.3477 13.281C18.9858 13.2998 19.588 13.5809 20.0121 14.0581L31.3595 26.8239L39.1816 24.2165C40.0564 23.9249 41.0208 24.1795 41.6376 24.8649L52.5142 36.95C52.5309 36.8673 52.5456 36.7839 52.5582 36.6998C53.8916 27.833 53.8916 18.8167 52.5582 9.94993C52.2102 7.63574 50.3215 5.86162 47.9901 5.65895L43.3224 5.2532ZM49.5582 40.5957L39.2073 29.0948L31.3755 31.7054C30.4958 31.9986 29.526 31.7394 28.9099 31.0463L18.1804 18.9755L5.06433 32.0916C5.21511 33.6311 5.40569 35.1676 5.63608 36.6998C5.98408 39.014 7.87279 40.7881 10.2042 40.9908L14.8719 41.3965C24.3376 42.2193 33.8568 42.2193 43.3224 41.3965L47.9901 40.9908C48.5425 40.9427 49.0701 40.8065 49.5582 40.5957Z" fill="#C8C7CA"/>
</svg>
