<svg width="32" height="32" viewBox="0 0 32 32" fill="none" xmlns="http://www.w3.org/2000/svg">
<path d="M16.004 31C13.136 31 10.358 30.189 7.954 28.653L2.606 30.362C2.427 30.419 2.23 30.371 2.097 30.237C1.965 30.103 1.919 29.905 1.98 29.727L3.705 24.581C1.935 22.061 1 19.1 1 16C1 11.924 2.612 8.109 5.539 5.258C5.736 5.066 6.053 5.07 6.246 5.267C6.438 5.465 6.434 5.782 6.236 5.974C3.505 8.636 2 12.196 2 16C2 18.974 2.922 21.811 4.665 24.204C4.76 24.335 4.786 24.504 4.734 24.658L3.242 29.11L7.875 27.629C8.019 27.582 8.177 27.605 8.304 27.688C10.589 29.2 13.252 30 16.004 30C23.722 30 30 23.72 30 16C30 8.281 23.722 2 16.004 2H16.001C13.834 2 11.763 2.481 9.837 3.429C9.589 3.55 9.29 3.449 9.168 3.202C9.046 2.955 9.147 2.654 9.396 2.532C11.46 1.516 13.682 1 15.996 1C24.272 1 31 7.729 31 16C31 24.271 24.272 31 16.004 31Z" fill="#112038"/>
<path d="M20.602 24.493C19.591 24.493 18.18 24.103 16.163 23.267C13.53 22.177 10.92 19.893 8.81304 16.838L8.73804 16.731C8.04204 15.78 6.91504 13.958 6.91504 12.056C6.91504 9.82696 8.03004 8.69596 8.50704 8.21296C8.95604 7.75196 9.62704 7.50696 10.381 7.50696C10.571 7.50696 10.741 7.51596 10.896 7.52496C11.531 7.54996 11.899 7.70996 12.249 8.54696L12.612 9.42696C12.996 10.358 13.469 11.507 13.543 11.662C13.625 11.831 13.874 12.35 13.597 12.89C13.449 13.206 13.304 13.373 13.105 13.603C12.965 13.764 12.872 13.864 12.777 13.964C12.667 14.082 12.555 14.198 12.443 14.339C12.25 14.565 12.25 14.565 12.315 14.678C12.685 15.303 13.472 16.503 14.568 17.478C15.99 18.743 17.139 19.208 17.691 19.432L17.828 19.488C17.973 19.548 18.156 19.591 18.293 19.446C18.541 19.179 18.855 18.74 19.187 18.275L19.386 17.996C19.735 17.503 20.165 17.399 20.464 17.399C20.639 17.399 20.821 17.434 21.007 17.504C21.472 17.666 23.919 18.885 23.944 18.897L24.179 19.012C24.529 19.18 24.805 19.313 24.963 19.591C25.192 19.989 25.102 21.033 24.754 22.018C24.337 23.197 22.787 24.118 21.541 24.386C21.293 24.438 20.998 24.493 20.602 24.493ZM10.38 8.50696C9.90804 8.50696 9.47804 8.64896 9.25604 8.87596C8.79504 9.34396 7.91404 10.237 7.91404 12.056C7.91404 13.237 8.49904 14.714 9.51904 16.107L9.63504 16.272C11.633 19.17 14.087 21.327 16.544 22.344C18.437 23.129 19.726 23.494 20.601 23.494C20.901 23.494 21.124 23.452 21.328 23.409C22.301 23.199 23.526 22.48 23.807 21.685C24.111 20.828 24.105 20.169 24.069 20.038C24.067 20.069 23.887 19.984 23.742 19.914L23.493 19.792C22.792 19.441 20.98 18.556 20.663 18.445C20.579 18.413 20.515 18.4 20.461 18.4C20.416 18.4 20.323 18.4 20.197 18.578L19.997 18.858C19.646 19.35 19.315 19.814 19.021 20.13C18.644 20.533 17.997 20.645 17.44 20.413L17.313 20.361C16.756 20.136 15.451 19.608 13.9 18.228C12.704 17.162 11.851 15.865 11.449 15.186C11.026 14.457 11.455 13.955 11.661 13.714C11.792 13.551 11.92 13.416 12.048 13.28C12.132 13.191 12.216 13.102 12.302 13.002C12.527 12.743 12.601 12.657 12.698 12.45C12.727 12.393 12.743 12.312 12.639 12.096C12.563 11.936 12.077 10.762 11.686 9.80996L11.324 8.93296C11.159 8.53696 11.159 8.53696 10.845 8.52496C10.701 8.51496 10.549 8.50696 10.38 8.50696Z" fill="#112038"/>
<path d="M7.5 4.5C7.77614 4.5 8 4.27614 8 4C8 3.72386 7.77614 3.5 7.5 3.5C7.22386 3.5 7 3.72386 7 4C7 4.27614 7.22386 4.5 7.5 4.5Z" fill="#112038"/>
</svg>
