<?xml version="1.0" standalone="no"?>
<!DOCTYPE svg PUBLIC "-//W3C//DTD SVG 20010904//EN"
 "http://www.w3.org/TR/2001/REC-SVG-20010904/DTD/svg10.dtd">
<svg version="1.0" xmlns="http://www.w3.org/2000/svg"
 width="800.000000pt" height="800.000000pt" viewBox="0 0 800.000000 800.000000"
 preserveAspectRatio="xMidYMid meet">
<metadata>
Created by potrace 1.14, written by Peter Selinger 2001-2017
</metadata>
<g transform="translate(0.000000,800.000000) scale(0.100000,-0.100000)"
fill="#000000" stroke="none">
<path d="M3848 7995 c-2 -2 -21 -6 -43 -9 -156 -24 -244 -50 -405 -124 -85
-38 -210 -125 -292 -201 -69 -65 -76 -69 -133 -76 -33 -3 -82 -11 -110 -16
-27 -5 -61 -12 -75 -14 -51 -10 -67 -14 -147 -39 -214 -69 -373 -174 -504
-334 -33 -40 -88 -149 -109 -217 -27 -87 -35 -245 -15 -327 20 -86 68 -175
131 -245 31 -35 60 -63 66 -63 5 0 96 43 202 96 106 52 199 97 207 98 8 2 28
9 44 15 182 76 442 155 615 187 14 3 32 7 40 9 8 3 35 7 59 10 24 3 47 7 50 9
3 2 35 7 71 11 36 4 73 9 83 10 61 12 222 19 417 19 267 0 388 -9 565 -39 17
-3 44 -7 60 -10 17 -3 41 -8 55 -11 14 -3 34 -7 45 -8 11 -2 43 -9 70 -16 28
-6 58 -13 67 -15 68 -14 274 -78 393 -123 129 -48 180 -71 362 -163 l171 -86
44 46 c126 131 171 249 163 426 -4 119 -36 228 -92 324 -41 69 -144 181 -208
227 -22 16 -42 31 -45 34 -11 11 -135 75 -200 103 -20 9 -83 29 -140 46 -113
32 -142 38 -285 56 -56 7 -65 12 -126 70 -115 108 -245 190 -393 249 -38 15
-76 29 -85 31 -9 3 -50 13 -91 24 -41 11 -93 23 -115 26 -43 7 -362 15 -367
10z"/>
<path d="M3990 6403 c0 -4 -48 -8 -108 -9 -99 -1 -224 -9 -282 -19 -14 -2 -43
-6 -65 -10 -109 -16 -220 -37 -236 -45 -9 -5 -18 -7 -21 -5 -2 2 -51 -9 -109
-26 -57 -16 -111 -31 -119 -34 -43 -11 -146 -47 -230 -80 -96 -38 -381 -173
-390 -185 -3 -4 -21 -15 -40 -25 -69 -35 -287 -185 -395 -272 -105 -84 -321
-291 -415 -398 -106 -121 -274 -358 -355 -501 -159 -281 -295 -630 -349 -898
-3 -11 -10 -46 -16 -76 -6 -30 -13 -68 -15 -85 -2 -16 -7 -46 -10 -65 -24
-147 -29 -233 -30 -465 0 -218 8 -351 29 -480 24 -145 54 -284 86 -390 11 -38
23 -80 25 -91 24 -109 190 -488 270 -619 14 -22 28 -47 32 -55 31 -70 244
-364 341 -474 52 -58 258 -264 313 -311 125 -109 263 -210 439 -321 135 -85
463 -243 560 -270 8 -2 62 -20 120 -39 58 -20 114 -37 125 -40 11 -2 29 -6 40
-9 28 -8 106 -27 130 -32 25 -6 170 -33 210 -39 142 -23 246 -29 475 -29 231
0 314 5 480 29 75 11 208 38 260 52 30 8 69 17 85 20 17 3 38 9 48 14 9 5 17
7 17 3 0 -3 7 -1 15 6 8 7 15 10 15 7 0 -3 28 5 63 17 34 13 64 23 67 24 3 0
19 6 35 12 17 7 35 13 40 14 6 2 23 8 38 14 16 7 30 12 31 12 2 0 25 10 52 22
27 12 52 22 55 23 10 0 264 129 269 136 3 3 20 14 38 23 63 32 331 212 352
236 3 3 18 16 34 28 176 135 470 440 586 607 76 110 96 140 105 154 114 185
232 403 241 445 2 11 7 22 11 25 5 3 9 11 10 16 1 6 22 63 48 129 25 65 47
125 49 135 2 9 6 23 9 31 10 26 49 163 53 190 3 14 7 33 10 42 3 9 7 27 10 40
16 77 26 127 29 153 2 17 7 46 10 65 24 146 29 236 29 475 -1 127 -4 262 -8
300 -4 39 -9 84 -11 100 -3 37 -12 86 -36 215 -16 85 -17 91 -44 195 -56 213
-136 424 -236 620 -60 118 -93 179 -99 185 -3 3 -19 28 -35 55 -31 56 -103
163 -122 183 -7 7 -13 17 -13 21 0 4 -8 16 -17 27 -10 10 -31 37 -48 59 -16
22 -34 45 -40 51 -5 6 -30 36 -55 65 -45 55 -282 294 -335 339 -80 67 -183
149 -210 166 -16 10 -32 21 -35 24 -8 10 -202 135 -260 168 -56 32 -266 136
-330 165 -109 47 -376 140 -436 150 -16 3 -54 12 -84 20 -30 9 -82 20 -115 26
-33 6 -71 13 -85 16 -14 3 -43 7 -65 10 -22 3 -56 8 -75 11 -57 8 -127 13
-263 19 -71 2 -133 7 -138 11 -5 3 -9 2 -9 -3z m-830 -1398 c218 -220 308
-304 319 -299 31 12 177 53 211 59 19 3 42 8 50 10 44 13 130 19 255 19 192 1
278 -11 453 -61 l93 -26 300 299 c165 164 302 300 304 302 11 10 230 -136 355
-237 134 -108 359 -335 394 -399 5 -9 16 -24 25 -32 36 -36 166 -247 225 -366
56 -112 123 -271 130 -307 2 -7 14 -50 29 -97 24 -76 38 -137 51 -210 2 -14 7
-32 9 -40 3 -8 8 -40 12 -70 3 -30 9 -77 12 -105 4 -27 7 -135 7 -240 0 -231
-7 -312 -41 -470 -8 -38 -17 -81 -19 -95 -9 -47 -64 -225 -94 -302 -46 -120
-101 -232 -194 -393 -19 -33 -90 -138 -108 -160 -9 -11 -25 -31 -36 -44 l-19
-24 -141 141 -141 141 45 63 c24 35 47 70 51 78 4 8 9 17 12 20 18 16 133 249
141 285 1 6 5 15 10 20 6 9 59 160 66 190 29 125 52 233 52 245 0 8 4 42 8 75
15 111 7 516 -11 545 -2 3 -6 24 -8 45 -3 22 -8 47 -11 55 -3 8 -8 26 -10 40
-18 96 -74 253 -140 395 -40 85 -140 262 -156 275 -3 3 -17 21 -30 40 -62 91
-182 224 -286 318 -32 29 -69 62 -80 73 -12 10 -26 19 -32 19 -6 0 -12 5 -14
12 -4 11 -288 -264 -288 -279 1 -4 28 -28 61 -53 79 -59 198 -177 271 -268 32
-40 58 -75 58 -77 0 -8 -279 -285 -287 -285 -5 0 -16 13 -26 29 -63 107 -244
283 -364 354 -8 5 -125 -105 -318 -297 -168 -168 -305 -307 -305 -310 0 -3 8
-5 18 -4 9 0 77 -1 150 -2 73 -1 135 0 137 2 2 2 22 2 44 0 29 -3 39 -8 39
-20 0 -10 0 -53 1 -97 1 -44 0 -127 -1 -184 l-3 -103 -75 1 c-41 0 -113 1
-160 1 -47 -1 -102 0 -122 0 -34 1 -37 -1 -40 -32 -2 -18 0 -57 3 -86 3 -29 1
-55 -3 -58 -5 -3 -6 -9 -3 -13 2 -5 5 -54 6 -110 1 -103 4 -109 43 -102 10 2
213 1 282 -1 22 -1 45 2 51 5 18 11 22 -4 22 -90 0 -44 1 -84 2 -89 1 -5 1
-57 0 -116 l-1 -108 -72 1 c-40 0 -130 -1 -201 -1 l-127 -1 0 -27 c1 -15 1
-87 0 -160 0 -73 2 -137 5 -142 3 -6 2 -10 -3 -10 -5 0 -7 -13 -4 -29 l4 -30
82 4 c98 5 204 26 306 61 79 27 210 91 222 109 4 5 8 6 8 1 0 -5 10 -1 23 10
12 11 42 33 66 50 80 53 222 201 279 291 15 24 30 43 35 43 4 0 71 -63 148
-141 l140 -140 -16 -25 c-60 -92 -215 -251 -320 -329 -22 -17 -42 -32 -45 -36
-14 -16 -153 -99 -165 -99 -8 0 -15 -4 -15 -8 0 -8 -73 -43 -174 -84 -91 -36
-230 -73 -351 -92 -16 -3 -73 -8 -125 -11 -58 -3 -97 -10 -102 -18 -4 -7 -4
-13 0 -14 4 -2 6 -47 4 -100 -1 -54 -3 -137 -3 -186 l0 -87 -127 1 c-70 0
-132 0 -137 -1 -6 -2 -37 -2 -71 -1 -41 1 -61 5 -61 14 -1 12 -2 250 -2 277 0
8 0 49 -1 90 l-1 76 -92 29 c-51 16 -99 32 -107 36 -8 4 -54 26 -102 49 -234
110 -438 284 -616 525 -48 65 -98 157 -158 290 -46 104 -91 265 -111 406 -9
61 -9 341 0 414 24 199 111 444 220 623 31 51 61 98 66 105 126 155 239 272
294 305 15 9 27 20 27 24 0 4 14 14 30 23 17 9 30 20 30 25 0 6 -63 73 -139
149 l-140 140 -41 -30 c-22 -16 -49 -37 -59 -47 -247 -231 -377 -401 -500
-653 -53 -110 -121 -288 -135 -359 -3 -14 -14 -63 -25 -109 -11 -47 -17 -89
-15 -93 3 -4 2 -13 -2 -20 -4 -7 -9 -23 -10 -37 -3 -32 -16 -312 -15 -326 5
-73 11 -136 15 -160 2 -16 7 -52 11 -80 37 -260 147 -543 302 -778 l71 -109
-139 -139 c-76 -76 -141 -139 -143 -139 -2 0 -21 24 -42 53 -21 28 -41 54 -44
57 -22 20 -146 233 -193 331 -53 112 -122 287 -131 334 -1 6 -10 35 -19 65 -9
30 -18 66 -21 80 -2 14 -9 48 -16 75 -6 28 -13 61 -15 75 -2 14 -9 59 -15 100
-9 60 -24 287 -22 335 5 101 13 225 16 241 2 12 7 45 11 75 4 30 13 86 22 124
8 39 17 81 19 95 8 40 70 240 94 300 43 110 85 200 135 290 61 110 64 115 141
225 71 101 81 115 163 209 122 141 331 323 493 428 111 72 152 98 158 98 3 0
142 -137 310 -305z"/>
<path d="M3888 4395 c-2 -2 -23 -6 -47 -9 -24 -3 -46 -7 -47 -9 -5 -4 197
-207 205 -207 8 0 201 193 201 201 0 3 -6 6 -12 6 -7 0 -26 4 -43 8 -29 7
-251 15 -257 10z"/>
<path d="M3355 4208 c-11 -6 -22 -14 -25 -17 -3 -3 -24 -19 -48 -35 -64 -44
-212 -194 -257 -261 -22 -33 -42 -62 -45 -65 -19 -19 -95 -183 -120 -260 -44
-134 -59 -242 -55 -400 5 -246 63 -426 201 -635 125 -187 311 -341 529 -436
28 -12 53 -23 57 -25 4 -3 7 4 7 13 -1 50 0 239 0 248 3 62 3 115 3 260 -1
229 -2 268 -8 276 -2 4 0 10 6 14 6 4 8 10 5 15 -4 7 -6 172 -3 260 0 8 0 47
-1 85 0 39 -1 134 -1 213 l1 143 32 -1 c17 -1 101 -1 186 -1 85 0 158 -2 163
-5 4 -3 8 0 8 5 0 9 -605 622 -612 621 -2 0 -12 -6 -23 -12z"/>
</g>
</svg>
